<mxfile host="65bd71144e">
    <diagram id="LvhwWmpFbVYoJrgcjapI" name="Structure">
        <mxGraphModel dx="969" dy="718" grid="1" gridSize="10" guides="1" tooltips="1" connect="1" arrows="1" fold="1" page="1" pageScale="1" pageWidth="850" pageHeight="1100" math="0" shadow="0">
            <root>
                <mxCell id="dsAPeFIPqLJANEhXfVn_-0"/>
                <mxCell id="dsAPeFIPqLJANEhXfVn_-1" parent="dsAPeFIPqLJANEhXfVn_-0"/>
                <mxCell id="dsAPeFIPqLJANEhXfVn_-2" value="" style="rounded=0;whiteSpace=wrap;html=1;fillColor=none;strokeColor=#66B2FF;strokeWidth=2;" parent="dsAPeFIPqLJANEhXfVn_-1" vertex="1">
                    <mxGeometry x="35" y="180" width="780" height="440" as="geometry"/>
                </mxCell>
                <mxCell id="dsAPeFIPqLJANEhXfVn_-3" value="&lt;font style=&quot;font-size: 23px&quot;&gt;Workspace&lt;/font&gt;" style="text;html=1;align=center;verticalAlign=middle;resizable=0;points=[];autosize=1;strokeColor=none;fillColor=none;" parent="dsAPeFIPqLJANEhXfVn_-1" vertex="1">
                    <mxGeometry x="345" y="148" width="130" height="20" as="geometry"/>
                </mxCell>
                <mxCell id="dsAPeFIPqLJANEhXfVn_-42" style="edgeStyle=none;html=1;fontSize=18;" parent="dsAPeFIPqLJANEhXfVn_-1" edge="1">
                    <mxGeometry relative="1" as="geometry">
                        <mxPoint x="395" y="423" as="sourcePoint"/>
                        <mxPoint x="455" y="423" as="targetPoint"/>
                    </mxGeometry>
                </mxCell>
                <mxCell id="dsAPeFIPqLJANEhXfVn_-8" value="" style="rounded=0;whiteSpace=wrap;html=1;fontSize=23;fillColor=none;strokeColor=#FF99FF;strokeWidth=2;" parent="dsAPeFIPqLJANEhXfVn_-1" vertex="1">
                    <mxGeometry x="65" y="305" width="320" height="235" as="geometry"/>
                </mxCell>
                <mxCell id="dsAPeFIPqLJANEhXfVn_-10" value="&lt;font style=&quot;font-size: 18px&quot;&gt;dogapis&lt;/font&gt;" style="text;html=1;strokeColor=none;fillColor=none;align=center;verticalAlign=middle;whiteSpace=wrap;rounded=0;fontSize=23;" parent="dsAPeFIPqLJANEhXfVn_-1" vertex="1">
                    <mxGeometry x="195" y="270" width="60" height="30" as="geometry"/>
                </mxCell>
                <mxCell id="dsAPeFIPqLJANEhXfVn_-18" value="" style="rounded=0;whiteSpace=wrap;html=1;fontSize=18;fillColor=none;strokeColor=#FF99FF;strokeWidth=2;" parent="dsAPeFIPqLJANEhXfVn_-1" vertex="1">
                    <mxGeometry x="115" y="357.5" width="220" height="130" as="geometry"/>
                </mxCell>
                <mxCell id="dsAPeFIPqLJANEhXfVn_-22" value="petland/dogapi" style="text;html=1;strokeColor=none;fillColor=none;align=center;verticalAlign=middle;whiteSpace=wrap;rounded=0;fontSize=18;" parent="dsAPeFIPqLJANEhXfVn_-1" vertex="1">
                    <mxGeometry x="160" y="325" width="150" height="30" as="geometry"/>
                </mxCell>
                <mxCell id="dsAPeFIPqLJANEhXfVn_-25" value="v1beta" style="rounded=0;whiteSpace=wrap;html=1;fontSize=18;fillColor=none;strokeColor=#FF99FF;strokeWidth=2;" parent="dsAPeFIPqLJANEhXfVn_-1" vertex="1">
                    <mxGeometry x="145" y="392.5" width="80" height="60" as="geometry"/>
                </mxCell>
                <mxCell id="dsAPeFIPqLJANEhXfVn_-26" value="v1" style="rounded=0;whiteSpace=wrap;html=1;fontSize=18;fillColor=none;strokeColor=#FF99FF;strokeWidth=2;" parent="dsAPeFIPqLJANEhXfVn_-1" vertex="1">
                    <mxGeometry x="245" y="392.5" width="65" height="60" as="geometry"/>
                </mxCell>
                <mxCell id="dsAPeFIPqLJANEhXfVn_-28" value="" style="rounded=0;whiteSpace=wrap;html=1;fontSize=23;fillColor=none;strokeColor=#FF99FF;strokeWidth=2;" parent="dsAPeFIPqLJANEhXfVn_-1" vertex="1">
                    <mxGeometry x="465" y="305" width="320" height="235" as="geometry"/>
                </mxCell>
                <mxCell id="dsAPeFIPqLJANEhXfVn_-29" value="&lt;font style=&quot;font-size: 18px&quot;&gt;tracingapis&lt;/font&gt;" style="text;html=1;strokeColor=none;fillColor=none;align=center;verticalAlign=middle;whiteSpace=wrap;rounded=0;fontSize=23;" parent="dsAPeFIPqLJANEhXfVn_-1" vertex="1">
                    <mxGeometry x="595" y="270" width="60" height="30" as="geometry"/>
                </mxCell>
                <mxCell id="dsAPeFIPqLJANEhXfVn_-30" value="" style="rounded=0;whiteSpace=wrap;html=1;fontSize=18;fillColor=none;strokeColor=#FF99FF;strokeWidth=2;" parent="dsAPeFIPqLJANEhXfVn_-1" vertex="1">
                    <mxGeometry x="555" y="357.5" width="140" height="130" as="geometry"/>
                </mxCell>
                <mxCell id="dsAPeFIPqLJANEhXfVn_-31" value="petland/traceapi" style="text;html=1;strokeColor=none;fillColor=none;align=center;verticalAlign=middle;whiteSpace=wrap;rounded=0;fontSize=18;" parent="dsAPeFIPqLJANEhXfVn_-1" vertex="1">
                    <mxGeometry x="555" y="325" width="140" height="30" as="geometry"/>
                </mxCell>
                <mxCell id="dsAPeFIPqLJANEhXfVn_-33" value="v1" style="rounded=0;whiteSpace=wrap;html=1;fontSize=18;fillColor=none;strokeColor=#FF99FF;strokeWidth=2;" parent="dsAPeFIPqLJANEhXfVn_-1" vertex="1">
                    <mxGeometry x="592.5" y="392.5" width="65" height="60" as="geometry"/>
                </mxCell>
                <mxCell id="dsAPeFIPqLJANEhXfVn_-37" value="" style="rounded=0;whiteSpace=wrap;html=1;fontSize=18;strokeColor=#FF99FF;fillColor=none;strokeWidth=2;" parent="dsAPeFIPqLJANEhXfVn_-1" vertex="1">
                    <mxGeometry x="215" y="710" width="60" height="60" as="geometry"/>
                </mxCell>
                <mxCell id="dsAPeFIPqLJANEhXfVn_-38" value="= buf workspace" style="text;html=1;strokeColor=none;fillColor=none;align=center;verticalAlign=middle;whiteSpace=wrap;rounded=0;fontSize=18;" parent="dsAPeFIPqLJANEhXfVn_-1" vertex="1">
                    <mxGeometry x="275" y="725" width="145" height="30" as="geometry"/>
                </mxCell>
                <mxCell id="dsAPeFIPqLJANEhXfVn_-39" value="" style="rounded=0;whiteSpace=wrap;html=1;fontSize=18;strokeColor=#66B2FF;fillColor=none;strokeWidth=2;" parent="dsAPeFIPqLJANEhXfVn_-1" vertex="1">
                    <mxGeometry x="442.5" y="710" width="60" height="60" as="geometry"/>
                </mxCell>
                <mxCell id="dsAPeFIPqLJANEhXfVn_-40" value="= buf module" style="text;html=1;strokeColor=none;fillColor=none;align=center;verticalAlign=middle;whiteSpace=wrap;rounded=0;fontSize=18;" parent="dsAPeFIPqLJANEhXfVn_-1" vertex="1">
                    <mxGeometry x="491" y="725" width="145" height="30" as="geometry"/>
                </mxCell>
                <mxCell id="dsAPeFIPqLJANEhXfVn_-44" value="" style="endArrow=classic;html=1;fontSize=18;" parent="dsAPeFIPqLJANEhXfVn_-1" edge="1">
                    <mxGeometry width="50" height="50" relative="1" as="geometry">
                        <mxPoint x="215" y="860" as="sourcePoint"/>
                        <mxPoint x="265" y="810" as="targetPoint"/>
                    </mxGeometry>
                </mxCell>
                <mxCell id="dsAPeFIPqLJANEhXfVn_-45" value="= dependency" style="text;html=1;strokeColor=none;fillColor=none;align=center;verticalAlign=middle;whiteSpace=wrap;rounded=0;fontSize=18;" parent="dsAPeFIPqLJANEhXfVn_-1" vertex="1">
                    <mxGeometry x="275.5" y="830" width="130" height="30" as="geometry"/>
                </mxCell>
            </root>
        </mxGraphModel>
    </diagram>
    <diagram id="oz4K4ukwdaOw35Din9My" name="Monorepos">
        <mxGraphModel dx="969" dy="718" grid="1" gridSize="10" guides="1" tooltips="1" connect="1" arrows="1" fold="1" page="1" pageScale="1" pageWidth="850" pageHeight="1100" math="0" shadow="0">
            <root>
                <mxCell id="T_FVs0Wl5C_X_HnGOfqo-0"/>
                <mxCell id="T_FVs0Wl5C_X_HnGOfqo-1" parent="T_FVs0Wl5C_X_HnGOfqo-0"/>
                <mxCell id="T_FVs0Wl5C_X_HnGOfqo-2" value="Isolation Benefits" style="swimlane;fontStyle=0;childLayout=stackLayout;horizontal=1;startSize=30;horizontalStack=0;resizeParent=1;resizeParentMax=0;resizeLast=0;collapsible=1;marginBottom=0;fontSize=17;fillColor=#e1d5e7;strokeColor=#9673a6;fontColor=#000000;" parent="T_FVs0Wl5C_X_HnGOfqo-1" vertex="1">
                    <mxGeometry x="30" y="360" width="490" height="220" as="geometry"/>
                </mxCell>
                <mxCell id="T_FVs0Wl5C_X_HnGOfqo-3" value="Each module can be pushed up independentlyÂ " style="text;strokeColor=#9673a6;fillColor=#e1d5e7;align=left;verticalAlign=middle;spacingLeft=4;spacingRight=4;overflow=hidden;points=[[0,0.5],[1,0.5]];portConstraint=eastwest;rotatable=0;fontSize=17;fontColor=#000000;" parent="T_FVs0Wl5C_X_HnGOfqo-2" vertex="1">
                    <mxGeometry y="30" width="490" height="30" as="geometry"/>
                </mxCell>
                <mxCell id="T_FVs0Wl5C_X_HnGOfqo-4" value="Each module can be compiled independently" style="text;strokeColor=#9673a6;fillColor=#e1d5e7;align=left;verticalAlign=middle;spacingLeft=4;spacingRight=4;overflow=hidden;points=[[0,0.5],[1,0.5]];portConstraint=eastwest;rotatable=0;fontSize=17;fontColor=#000000;" parent="T_FVs0Wl5C_X_HnGOfqo-2" vertex="1">
                    <mxGeometry y="60" width="490" height="30" as="geometry"/>
                </mxCell>
                <mxCell id="kVRT1C0nAzM4kkjCBOc9-0" value="Each module can have it's own settings and config" style="text;strokeColor=#9673a6;fillColor=#e1d5e7;align=left;verticalAlign=middle;spacingLeft=4;spacingRight=4;overflow=hidden;points=[[0,0.5],[1,0.5]];portConstraint=eastwest;rotatable=0;fontSize=17;fontColor=#000000;" vertex="1" parent="T_FVs0Wl5C_X_HnGOfqo-2">
                    <mxGeometry y="90" width="490" height="30" as="geometry"/>
                </mxCell>
                <mxCell id="kVRT1C0nAzM4kkjCBOc9-2" value="Breaking changes to a module do not have to be consumed" style="text;strokeColor=#9673a6;fillColor=#e1d5e7;align=left;verticalAlign=middle;spacingLeft=4;spacingRight=4;overflow=hidden;points=[[0,0.5],[1,0.5]];portConstraint=eastwest;rotatable=0;fontSize=17;fontColor=#000000;" vertex="1" parent="T_FVs0Wl5C_X_HnGOfqo-2">
                    <mxGeometry y="120" width="490" height="50" as="geometry"/>
                </mxCell>
                <mxCell id="T_FVs0Wl5C_X_HnGOfqo-5" value="Each module can be managed by seperate teams" style="text;strokeColor=#9673a6;fillColor=#e1d5e7;align=left;verticalAlign=middle;spacingLeft=4;spacingRight=4;overflow=hidden;points=[[0,0.5],[1,0.5]];portConstraint=eastwest;rotatable=0;fontSize=17;fontColor=#000000;" parent="T_FVs0Wl5C_X_HnGOfqo-2" vertex="1">
                    <mxGeometry y="170" width="490" height="50" as="geometry"/>
                </mxCell>
                <mxCell id="kVRT1C0nAzM4kkjCBOc9-4" style="edgeStyle=none;html=1;entryX=0.25;entryY=0;entryDx=0;entryDy=0;" edge="1" parent="T_FVs0Wl5C_X_HnGOfqo-1" source="T_FVs0Wl5C_X_HnGOfqo-6" target="T_FVs0Wl5C_X_HnGOfqo-7">
                    <mxGeometry relative="1" as="geometry"/>
                </mxCell>
                <mxCell id="kVRT1C0nAzM4kkjCBOc9-5" style="edgeStyle=none;html=1;entryX=0.75;entryY=0;entryDx=0;entryDy=0;" edge="1" parent="T_FVs0Wl5C_X_HnGOfqo-1" source="T_FVs0Wl5C_X_HnGOfqo-6" target="T_FVs0Wl5C_X_HnGOfqo-2">
                    <mxGeometry relative="1" as="geometry"/>
                </mxCell>
                <mxCell id="T_FVs0Wl5C_X_HnGOfqo-6" value="&lt;font&gt;Monorepo Structure&lt;/font&gt;" style="rounded=0;whiteSpace=wrap;html=1;fontSize=17;fillColor=#dae8fc;strokeColor=#6c8ebf;fontColor=#000000;" parent="T_FVs0Wl5C_X_HnGOfqo-1" vertex="1">
                    <mxGeometry x="430" y="130" width="185" height="120" as="geometry"/>
                </mxCell>
                <mxCell id="T_FVs0Wl5C_X_HnGOfqo-7" value="Connected Benefits" style="swimlane;fontStyle=0;childLayout=stackLayout;horizontal=1;startSize=30;horizontalStack=0;resizeParent=1;resizeParentMax=0;resizeLast=0;collapsible=1;marginBottom=0;fontSize=17;fillColor=#d5e8d4;strokeColor=#82b366;fontColor=#000000;" parent="T_FVs0Wl5C_X_HnGOfqo-1" vertex="1">
                    <mxGeometry x="600" y="360" width="300" height="90" as="geometry"/>
                </mxCell>
                <mxCell id="T_FVs0Wl5C_X_HnGOfqo-8" value="Import other modules easily" style="text;strokeColor=#82b366;fillColor=#d5e8d4;align=left;verticalAlign=middle;spacingLeft=4;spacingRight=4;overflow=hidden;points=[[0,0.5],[1,0.5]];portConstraint=eastwest;rotatable=0;fontSize=17;fontColor=#000000;" parent="T_FVs0Wl5C_X_HnGOfqo-7" vertex="1">
                    <mxGeometry y="30" width="300" height="30" as="geometry"/>
                </mxCell>
                <mxCell id="T_FVs0Wl5C_X_HnGOfqo-9" value="Globally validate/configure modules" style="text;strokeColor=#82b366;fillColor=#d5e8d4;align=left;verticalAlign=middle;spacingLeft=4;spacingRight=4;overflow=hidden;points=[[0,0.5],[1,0.5]];portConstraint=eastwest;rotatable=0;fontSize=17;fontColor=#000000;" parent="T_FVs0Wl5C_X_HnGOfqo-7" vertex="1">
                    <mxGeometry y="60" width="300" height="30" as="geometry"/>
                </mxCell>
            </root>
        </mxGraphModel>
    </diagram>
</mxfile>